/* XPM */
static char *_000[] = {
/* columns rows colors chars-per-pixel */
"100 100 49 1 ",
"  c #42210B",
". c #44250C",
"X c #462B0E",
"o c #4E2F0A",
"O c #5A3D0A",
"+ c #4B3511",
"@ c #503F15",
"# c #544A18",
"$ c #5E5E1E",
"% c #664B09",
"& c #715908",
"* c #7D6708",
"= c #746C13",
"- c #616721",
"; c #626922",
": c #677325",
"> c #6B7E28",
", c #717C23",
"< c #897507",
"1 c #70882B",
"2 c #75922F",
"3 c #799D32",
"4 c #7EA735",
"5 c #958306",
"6 c #A19005",
"7 c #AD9E05",
"8 c #B9AC04",
"9 c #B5B00A",
"0 c #BBBE0F",
"q c #A6B51B",
"w c #B3B912",
"e c #81A32F",
"r c #92AF29",
"t c #9BB625",
"y c #96B82B",
"u c #83B138",
"i c #87BC3C",
"p c #A0B420",
"a c #C4BA03",
"s c #8FC038",
"d c #8CC63F",
"f c #C3C30B",
"g c #D0C803",
"h c #D5D206",
"j c #DCD602",
"k c #DFDC04",
"l c #E9E602",
"z c #F4F201",
"x c yellow",
/* pixels */
"dddddddddddddddddddddddddddddddddddddddddddddddddddddddddddddddddddddddddddddddddddddddddddddddddddd",
"dddddddddddddddddddddddddddddddddddddddddddddddddddddddddddddddddddddddddddddddddddddddddddddddddddd",
"dddddddddddddddddddddddddddddddddddddddddddddddddddddddddddddddddddddddddddddddddddddddddddddddddddd",
"dddddddddddddddddddddddddddddddddddddddddddddddddddddddddddddddddddddddddddddddddddddddddddddddddddd",
"dddddddddddddddddddddddddddddddddddddddddddddddddddddddddddddddddddddddddddddddddddddddddddddddddddd",
"dddddddddddddddddddddddddddddddddddddddddddddddddddddddddddddddddddddddddddddddddddddddddddddddddddd",
"dddddddddddddddddddddddddddddddddddddddddddddddddddddddddddddddddddddddddddddddddddddddddddddddddddd",
"dddddddddddddddddddddddddddddddddddddddddddddddddddddddddddddddddddddddddddddddddddddddddddddddddddd",
"dddddddddddddddddddddddddddddddddddddddddddddddddddddddddddddddddddddddddddddddddddddddddddddddddddd",
"dddddddddddddddddddddddddddddddddddddddddddddddddddddddddddddddddddddddddddddddddddddddddddddddddddd",
"dddddddddddddddddddddddddddddddddddddddddddddddddddddddddddddddddddddddddddddddddddddddddddddddddddd",
"dddddddddddddddddddddddddddddddddddddddddddddddddddddddddddddddddddddddddddddddddddddddddddddddddddd",
"dddddddddddddddddddddddddddddddddddddddddddddddddddddddddddddddddddddddddddddddddddddddddddddddddddd",
"dddddddddddddddddddddddddddddddddddddddddddddddddddddddddddddddddddddddddddddddddddddddddddddddddddd",
"ddddddddddywhhhhhhhhhhhhhhhhhhhhhhhhhhhhhhhhhhhhhhhhhhhhhhhhhhhhhhhhhhhhhhhhhhhhhhhhhhhfqsdddddddddd",
"ddddddddtlxxxxxxxxxxxxxxxxxxxxxxxxxxxxxxxxxxxxxxxxxxxxxxxxxxxxxxxxxxxxxxxxxxxxxxxxxxxxxxxxfsdddddddd",
"ddddddd0xxxxxxxxxxxxxxxxxxxxxxxxxxxxxxxxxxxxxxxxxxxxxxxxxxxxxxxxxxxxxxxxxxxxxxxxxxxxxxxxxxxzyddddddd",
"ddddddfxxxxxxxxxxxxxxxxxxxxxxxxxxxxxxxxxxxxxxxxxxxxxxxxxxxxxxxxxxxxxxxxxxxxxxxxxxxxxxxxxxxxxzydddddd",
"dddddpxxxxxxxxxxxxxxxxxxxxxxxxxxxxxxxxxxxxxxxxxxxzggxxxxxxxxxxxxxxxxxxxxxxxljxxxxxxxxxxxxxxxxkdddddd",
"dddddlxxxxxxxxxxxxxxxxxxxxxxxxxxxxxxxxxxxxxxxxx8%   Oaxxxxxxxxxxxxxxxxxxxl&  %jxxxxxxxxxxxxxxxwddddd",
"ddddqxxxxxxxxxxxxxxxxxxxxxxxxxxxxxxxxxxxxxxxx8O       5xxxxxxxxxxxxxxxxxjo    ojxxxxxxxxxxxxxxlddddd",
"ddddfxxxxxxxxxxxxxxxxxxxxxxxxxxxxxxxxxxxxxxl&          8xxxxxxxxxxxxxxxlo      ojxxxxxxxxxxxxxxydddd",
"ddddhxxxxxxxxxxxxxxxxxxxxxxxxxxxxxxxxxxxxx7o           ozxxxxxxxxxxxxxx%        &xxxxxxxxxxxxxxpdddd",
"dddd6xxxxxxxxxxxxxxxxxxxxxxxxxxxxxxxxxxxz*              7xxxxxxxxxxxxx6          8xxxxxxxxxxxxxwdddd",
"ddddoxxxxxxxxxxxxxxxzxxxxxxxxxxxxxxxxxxz%               %xxxxxxxxxxxxl           &xxxxxxxxxxxxxwdddd",
"dddd 8xxxxxxxxxxxxx<8xxxxxxxxxxxxxxxxxx<                 gxxxxxxxxxxx*            zxxxxxxxxxxxxwdddd",
"dddd Oxxxxxxxxxxxz& &xxxxxxxxxxxxxxxxx<                  &xxxxxxxxxxa             gxxxxxxxxxxxxwdddd",
"dddd  7xxxxxxxxxgo   gxxxxxxxxxxxxxxz*                    7xxxxxxxxjo             5xxxxxxxxxxxxwdddd",
"dddd  ogxxxxxxl*     Ozxxxxxxxxxxxxj%                      7xxxxxx7o              Oxxxxxxxxxxxxwdddd",
"dddd    <8gg6%        %zxxxxxxxxxx7o                        %7gg6O                 8xxxxxxxxxxl,dddd",
"dddd                   %gxxxxxxz8O                                                 ozxxxxxxxxz%:dddd",
"dddd#                    %6666&                                                     &xxxxxxxz% 2dddd",
"dddd$                                                                                *zxxxxgo  4dddd",
"dddd1                                                                                 o<66%   +ddddd",
"ddddd+                                                                                        :ddddd",
"ddddd2                                                                                       @dddddd",
"dddddd$                                                                                     X4dddddd",
"ddddddd;                                                                                   +4ddddddd",
"dddddddd-                                                                                 .idddddddd",
"dddddddd;                                                                                  udddddddd",
"dddddddd#                                                                                  3dddddddd",
"dddddddd#                                                                                  3dddddddd",
"dddddddd#                                                                                  3dddddddd",
"dddddddd#                                                                                  3dddddddd",
"dddddddd#                                                                                  3dddddddd",
"dddddddd#                                                                                  3dddddddd",
"dddddddd#                                                                                  3dddddddd",
"dddddddd#                                                                                  3dddddddd",
"dddddddd#                                                                                  3dddddddd",
"dddddddd9ggggggggggggggggggggggggggggggggggggggggggggggggggggggggggggggggggggggggggggggggggrdddddddd",
"ddddddddhxxxxxxxxxxxxxxxxxxxxxxxxxxxxxxxxxxxxxxxxxxxxxxxxxxxxxxxxxxxxxxxxxxxxxxxxxxxxxxxxxxtdddddddd",
"ddddddddhxxxxxxxxxxxxxxxxxxxxxxxxxxxxxxxxxxxxxxxxxxxxxxxxxxxxxxxxxxxxxxxxxxxxxxxxxxxxxxxxxxtdddddddd",
"ddddddddhxxxxxxxxxxxxxxxxxxxxxxxxxxxxxxxxxxxxxxxxxxxxxxxxxxxxxxxxxxxxxxxxxxxxxxxxxxxxxxxxxxtdddddddd",
"ddddddddhxxxxxxxxxxxxxxxxxxxxxxxxxxxxxxxxxxxxxxxxxxxxxxxxxxxxxxxxxxxxxxxxxxxxxxxxxxxxxxxxxxtdddddddd",
"ddddddddhxxxxxxxxxxxxxxxxxxxxxxxxxxxxxxxxxxxxxxxxxxxxxxxxxxxxxxxxxxxxxxxxxxxxxxxxxxxxxxxxxxtdddddddd",
"ddddddddhxxxxxxxxxxxxxxxxxxxxxxxxxxxxxxxxxxxxxxxxxxxxxxxxxxxxxxxxxxxxxxxxxxxxxxxxxxxxxxxxxxtdddddddd",
"ddddddddhxxxxxxxxxxxxxxxxxxxxxxxxxxxxxxxxxxxxxxxxxxxxxxxxxxxxxxxxxxxxxxxxxxxxxxxxxxxxxxxxxxtdddddddd",
"ddddddddhxxxxxxxxxxxxxxxxxxxxxxxxxxxxxxxxxxxxxxxxxxxxxxxxxxxxxxxxxxxxxxxxxxxxxxxxxxxxxxxxxxtdddddddd",
"ddddddddhxxxxxxxxxxxxxxxxxxxxxxxxxxxxxxxxxxxxxxxxxxxxxxxxxxxxxxxxxxxxxxxxxxxxxxxxxxxxxxxxxxtdddddddd",
"ddddddddhxxxxxxxxxxxxxxxxxxxxxxxxxxxxxxxxxxxxxxxxxxxxxxxxxxxxxxxxxxxxxxxxxxxxxxxxxxxxxxxxxxtdddddddd",
"ddddddddhxxxxxxxxxxxxxxxxxxxxxxxxxxxxxxxxxxxxxxxxxxxxxxxxxxxxxxxxxxxxxxxxxxxxxxxxxxxxxxxxxxtdddddddd",
"ddddddddhxxxxxxxxxxxxxxxxxxxxxxxxxxxxxxxxxxxxxxxxxxxxxxxxxxxxxxxxxxxxxxxxxxxxxxxxxxxxxxxxxxtdddddddd",
"ddddddddhxxxxxxxxxxxxxxxxxxxxxxxxxxxxxxxxxxxxxxxxxxxxxxxxxxxxxxxxxxxxxxxxxxxxxxxxxxxxxxxxxxtdddddddd",
"ddddddddhxxxxxxxxxxxxxxxxxxxxxxxxxxxxxxxxxxxxxxxxxxxxxxxxxxxxxxxxxxxxxxxxxxxxxxxxxxxxxxxxxxtdddddddd",
"ddddddddhxxxxxxxxxxxxxxxxxxxxxxxxxxxxxxxxxxxxxxxxxxxxxxxxxxxxxxxxxxxxxxxxxxxxxxxxxxxxxxxxxxtdddddddd",
"ddddddddhxxxxxxxxxxxxxxxxxxxxxxxxxxxxxxxxxxxxxxxxxxxxxxxxxxxxxxxxxxxxxxxxxxxxxxxxxxxxxxxxxxtdddddddd",
"ddddddddhxxxxxxxxxxxxxxxxxxxxxxxxxxxxxxxxxxxxxxxxxxxxxxxxxxxxxxxxxxxxxxxxxxxxxxxxxxxxxxxxxxtdddddddd",
"ddddddddhxxxxxxxxxxxxxxxxxxxxxxxxxxxxxxxxxxxxxxxxxxxxxxxxxxxxxxxxxxxxxxxxxxxxxxxxxxxxxxxxxxtdddddddd",
"ddddddddhxxxxxxxxxxxxxxxxxxxxxxxxxxxxxxxxxxxxxxxxxxxxxxxxxxxxxxxxxxxxxxxxxxxxxxxxxxxxxxxxxxtdddddddd",
"ddddddddhxxxxxxxxxxxxxxxxxxxxxxxxxxxxxxxxxxxxxxxxxxxxxxxxxxxxxxxxxxxxxxxxxxxxxxxxxxxxxxxxxxtdddddddd",
"ddddddddhxxxxxxxxxxxxxxxxxxxxxxxxxxxxxxxxxxxxxxxxxxxxxxxxxxxxxxxxxxxxxxxxxxxxxxxxxxxxxxxxxxtdddddddd",
"ddddddddhxxxxxxxxxxxxxxxxxxxxxxxxxxxxxxxxxxxxxxxxxxxxxxxxxxxxxxxxxxxxxxxxxxxxxxxxxxxxxxxxxxtdddddddd",
"ddddddddhxxxxxxxxxxxxxxxxxxxxxxxxxxxxxxxxxxxxxxxxxxxxxxxxxxxxxxxxxxxxxxxxxxxxxxxxxxxxxxxxxxtdddddddd",
"ddddddddhxxxxxxxxxxxxxxxxxxxxxxxxxxxxxxxxxxxxxxxxxxxxxxxxxxxxxxxxxxxxxxxxxxxxxxxxxxxxxxxxxxtdddddddd",
"ddddddddhxxxxxxxxxxxxxxxxxxxxxxxxxxxxxxxxxxxxxxxxxxxxxxxxxxxxxxxxxxxxxxxxxxxxxxxxxxxxxxxxxxtdddddddd",
"ddddddddhxxxxxxxxxxxxxxxxxxxxxxxxxxxxxxxxxxxxxxxxxxxxxxxxxxxxxxxxxxxxxxxxxxxxxxxxxxxxxxxxxxtdddddddd",
"dddddddd=&&&&&&&&&&&&&&&&&&&&&&&&&&&&&&&&&&&&&&&&&&&&&&&&&&&&&&&&&&&&&&&&&&&&&&&&&&&&&&&&&&edddddddd",
"dddddddd#                                                                                  3dddddddd",
"dddddddd#                                                                                  3dddddddd",
"dddddddd#                                                                                  3dddddddd",
"dddddddd#                                                                                  3dddddddd",
"dddddddd#                                                                                  3dddddddd",
"dddddddd#                                                                                  3dddddddd",
"dddddddd#                                                                                  3dddddddd",
"dddddddd#                                                                                  3dddddddd",
"dddddddd$                                                                                  4dddddddd",
"dddddddd:                                                                                  ddddddddd",
"dddddddd4                                                                                 #ddddddddd",
"ddddddddd+                                                                                1ddddddddd",
"ddddddddd2                                                                               @dddddddddd",
"dddddddddd$                                                                             X4dddddddddd",
"ddddddddddd$                                                                           X4ddddddddddd",
"dddddddddddd>X                                                                        #4dddddddddddd",
"dddddddddddddi>#                                                                   +$3dddddddddddddd",
"dddddddddddddddddddddddddddddddddddddddddddddddddddddddddddddddddddddddddddddddddddddddddddddddddddd",
"dddddddddddddddddddddddddddddddddddddddddddddddddddddddddddddddddddddddddddddddddddddddddddddddddddd",
"dddddddddddddddddddddddddddddddddddddddddddddddddddddddddddddddddddddddddddddddddddddddddddddddddddd",
"dddddddddddddddddddddddddddddddddddddddddddddddddddddddddddddddddddddddddddddddddddddddddddddddddddd",
"dddddddddddddddddddddddddddddddddddddddddddddddddddddddddddddddddddddddddddddddddddddddddddddddddddd",
"dddddddddddddddddddddddddddddddddddddddddddddddddddddddddddddddddddddddddddddddddddddddddddddddddddd"
};
