/* XPM */
static char *_001[] = {
/* columns rows colors chars-per-pixel */
"100 100 28 1 ",
"  c #FF4B00",
". c #FF5600",
"X c #F85204",
"o c #F15A08",
"O c #D47917",
"+ c #EA620C",
"@ c #FF6100",
"# c #FF6C00",
"$ c #FF7700",
"% c #FF7800",
"& c #E36910",
"* c #B79827",
"= c #B09F2B",
"- c #9AB737",
"; c #93BE3B",
": c #A2AF33",
"> c #C6881F",
", c #FF8E00",
"< c #FF9900",
"1 c orange",
"2 c #FFB000",
"3 c #8CC63F",
"4 c #FFC700",
"5 c #FFD200",
"6 c #FFDD00",
"7 c #FFE800",
"8 c #FFF400",
"9 c yellow",
/* pixels */
"333333333333333333333333333333333333333333333333-++-333333333333333333333333333333333333333333333333",
"33333333333333333333333333333333333333333333333=X  X=33333333333333333333333333333333333333333333333",
"3333333333333333333333333333333333333333333333>      >3333333333333333333333333333333333333333333333",
"33333333333333333333333333333333333333333333;&        &;33333333333333333333333333333333333333333333",
"3333333333333333333333333333333333333333333:o          o:3333333333333333333333333333333333333333333",
"333333333333333333333333333333333333333333*              *333333333333333333333333333333333333333333",
"3333333333333333333333333333333333333333;O                O;3333333333333333333333333333333333333333",
"333333333333333333333333333333333333333-+                  +-333333333333333333333333333333333333333",
"33333333333333333333333333333333333333=X                    X=33333333333333333333333333333333333333",
"3333333333333333333333333333333333333>                        >3333333333333333333333333333333333333",
"33333333333333333333333333333333333;&                          &;33333333333333333333333333333333333",
"3333333333333333333333333333333333:o                            o:3333333333333333333333333333333333",
"333333333333333333333333333333333*                                *333333333333333333333333333333333",
"3333333333333333333333333333333;O                                  O;3333333333333333333333333333333",
"333333333333333333333333333333-+                                    +-333333333333333333333333333333",
"33333333333333333333333333333=X                                      X=33333333333333333333333333333",
"3333333333333333333333333333>                                          >3333333333333333333333333333",
"33333333333333333333333333;&                                            &;33333333333333333333333333",
"3333333333333333333333333:o                                              o:3333333333333333333333333",
"333333333333333333333333*                                                  *333333333333333333333333",
"3333333333333333333333;O                                                    O;3333333333333333333333",
"333333333333333333333-+                                                      +-333333333333333333333",
"33333333333333333333=X                                                        X=33333333333333333333",
"3333333333333333333>                                                            >3333333333333333333",
"33333333333333333;&                                                              &;33333333333333333",
"3333333333333333:o                                                                o:3333333333333333",
"333333333333333*                                                                    *333333333333333",
"3333333333333;O                                                                      O;3333333333333",
"333333333333-+                                                                        +-333333333333",
"33333333333=X                                                                          X=33333333333",
"3333333333>                                                                              >3333333333",
"33333333;&                                                                                &;33333333",
"3333333:o                                                                                  o:3333333",
"333333*                                                                                      *333333",
"3333;O                                                                                        O;3333",
"333-+                                                                                          +-333",
"33=X                                                                                            X=33",
"3>                                                                                                >3",
"&                                                                                                  &",
"3333333333>                                                                              >3333333333",
"3333333333>                                                                              >3333333333",
"3333333333>                                                                              >3333333333",
"3333333333>                                                                              >3333333333",
"3333333333>                                                                              >3333333333",
"3333333333>                                                                              >3333333333",
"3333333333>                                                                              >3333333333",
"3333333333>                                                                              >3333333333",
"3333333333>                                                                              >3333333333",
"3333333333>                                                                              >3333333333",
"3333333333>                                                                              >3333333333",
"3333333333>                                                                              >3333333333",
"3333333333>                                                                              >3333333333",
"3333333333>                                                                              >3333333333",
"3333333333>                                                                              >3333333333",
"3333333333>                                                                              >3333333333",
"3333333333>                                                                              >3333333333",
"3333333333>                                                                              >3333333333",
"3333333333>                     %9999999999999999999999999999999                         >3333333333",
"3333333333>                     %9999999999999999999999999999999                         >3333333333",
"3333333333>                     %9999999999999999999999999999999                         >3333333333",
"3333333333>                     %9999999999999999999999999999999                         >3333333333",
"3333333333>                     %9999999999999999999999999999999                         >3333333333",
"3333333333>                     %9999999999999999999999999999999                         >3333333333",
"3333333333>                     %9999999999999999999999999999999                         >3333333333",
"3333333333>                     %9999999999999999999999999999999                         >3333333333",
"3333333333>                     %9999999999999999999999999999999                         >3333333333",
"3333333333>                     %9999999999999999999999999999999                         >3333333333",
"3333333333>                     %9999999999999999999999999999999                         >3333333333",
"3333333333>                     %9999999999999999999999999999999                         >3333333333",
"3333333333>                     %9999999999999999999999999999999                         >3333333333",
"3333333333>                     %9999999999999999999999999999999                         >3333333333",
"3333333333>                     %9999999999999999999999999999999                         >3333333333",
"3333333333>                     %9999999999999999999999999999999                         >3333333333",
"3333333333>                     %9999999999999999999999999999999                         >3333333333",
"3333333333>                     %9999999999999999999999999999999                         >3333333333",
"3333333333>                     %98, @69999999999999999999999999                         >3333333333",
"3333333333>                     %9<#72.8999999999999999999999999                         >3333333333",
"3333333333>                     %9.799#5999999999999999999999999                         >3333333333",
"3333333333>                     %9 999$5999999999999999999999999                         >3333333333",
"3333333333>                     %9@498@6999999999999999999999999                         >3333333333",
"3333333333>                     %94.1$$9999999999999999999999999                         >3333333333",
"3333333333>                     %9941289999999999999999999999999                         >3333333333",
"3333333333>                     %9999999999999999999999999999999                         >3333333333",
"3333333333>                     %9999999999999999999999999999999                         >3333333333",
"3333333333>                     %9999999999999999999999999999999                         >3333333333",
"3333333333>                     %9999999999999999999999999999999                         >3333333333",
"3333333333>                     %9999999999999999999999999999999                         >3333333333",
"3333333333>                     %9999999999999999999999999999999                         >3333333333",
"3333333333>                     %9999999999999999999999999999999                         >3333333333",
"3333333333>                     %9999999999999999999999999999999                         >3333333333",
"3333333333>                     %9999999999999999999999999999999                         >3333333333",
"3333333333>                     %9999999999999999999999999999999                         >3333333333",
"3333333333>                     %9999999999999999999999999999999                         >3333333333",
"3333333333>                     %9999999999999999999999999999999                         >3333333333",
"3333333333>                     %9999999999999999999999999999999                         >3333333333",
"3333333333>                     %9999999999999999999999999999999                         >3333333333",
"3333333333>                     %9999999999999999999999999999999                         >3333333333",
"3333333333>                     %9999999999999999999999999999999                         >3333333333",
"3333333333>                     %9999999999999999999999999999999                         >3333333333",
"3333333333>                     %9999999999999999999999999999999                         >3333333333"
};
