/* XPM */
static char *_002[] = {
/* columns rows colors chars-per-pixel */
"100 100 17 1 ",
"  c #006837",
". c #086E37",
"X c #117338",
"o c #1A7938",
"O c #237F39",
"+ c #2B8539",
"@ c #348B3A",
"# c #3D913A",
"$ c #46973B",
"% c #4F9D3B",
"& c #57A33C",
"* c #60A93C",
"= c #69AE3D",
"- c #72B43D",
"; c #7ABA3E",
": c #83C03E",
"> c #8CC63F",
/* pixels */
">>>>>>>>>>>>>>>>>>>>>>>>>>>>>>>>>>>>>>>>>>>>>>>>>>>>>>>>>>>>>>>>>>>>>>>>>>>>>>>>>>>>>>>>>>>>>>>>>>>>",
">>>>>>>>>>>>>>>>>>>>>>>>>>>>>>>>>>>>>>>>>>>>>>>>>>>>>>>>>>>>>>>>>>>>>>>>>>>>>>>>>>>>>>>>>>>>>>>>>>>>",
">>>>>>>>>>>>>>>>>>>>>>>>>>>>>>>>>>>>>>>>>>>>>>>>>>>>>>>>>>>>>>>>>>>>>>>>>>>>>>>>>>>>>>>>>>>>>>>>>>>>",
">>>>>>>>>>>>>>>>>>>>>>>>>>>>>>>>>>>>>>>>>>>>>>>>>>>>>>>>>>>>>>>>>>>>>>>>>>>>>>>>>>>>>>>>>>>>>>>>>>>>",
">>>>>>>>>>>>>>>>>>>>>>>>>>>>>>>>>>>>>>>>>>>>>>>>>>>>>>>>>>>>>>>>>>>>>>>>>>>>>>>>>>>>>>>>>>>>>>>>>>>>",
">>>>>>>>>>>>>>>>>>>>>>>>>>>>>>>>>>>>>>>>>>>>>>>>>>>>>>>>>>>>>>>>>>>>>>>>>>>>>>>>>>>>>>>>>>>>>>>>>>>>",
">>>>>>>>>>>>>>>>>>>>>>>>>>>>>>>>>>>>>>>>>>>>>>>>>>>>>>>>>>>>>>>>>>>>>>>>>>>>>>>>>>>>>>>>>>>>>>>>>>>>",
">>>>>>>>>>>>>>>>>>>>>>>>>>>>>>>>>>>>>>>>>>>>>>>>>>>>>>>>>>>>>>>>>>>>>>>>>>>>>>>>>>>>>>>>>>>>>>>>>>>>",
">>>>>>>>>>>>>>>>>>>>>>>>>>>>>>>>>>>>>>>>>>>>>>>>>>>>>>>>>>>>>>>>>>>>>>>>>>>>>>>>>>>>>>>>>>>>>>>>>>>>",
">>>>>>>>>>>>>>>>>>>>>>>>>>>>>>>>>>>>>>>>>>>>>>>>>>>>>>>>>>>>>>>>>>>>>>>>>>>>>>>>>>>>>>>>>>>>>>>>>>>>",
">>>>>>>>>>>>>>>>>>>>>>>>>>>>>>>>>>>>>>>>>>>>>>>>>>>>>>>>>>>>>>>>>>>>>>>>>>>>>>>>>>>>>>>>>>>>>>>>>>>>",
">>>>>>>>>>>>;@;>>>>>>>>>>>=#;>>>=@>>>>>>>>>>>>%%:>>:$%>>>>>>>>>>>>#*>>>;@=>>>>>>>>>>>;@->>>>>>>>>>>>",
">>>>>>>>>>>>+ @>>>>>>>>>>>+ @>>>. &>>>>>>>>>>:. *>>= .:>>>>>>>>>>= .:>>@ O>>>>>>>>>>># +>>>>>>>>>>>>",
">>>>>>>>>>>>=  ;>>>>>>>>>;  ;>>>$ X>>>>>>>>>>& X>>>>O $>>>>>>>>>>O #>>>:. =>>>>>>>>>:. =>>>>>>>>>>>>",
">>>>>>>>>>>>>O @>>>>>>>>>@ +>>>>:. &>>>>>>>>>X &>>>>= .:>>>>>>>>;  ;>>>>$ O>>>>>>>>>% X>>>>>>>>>>>>>",
">>>>>>>>>>>>>=  ;>>>>>>>:. =>>>>>$ X>>>>>>>>& .>>>>>>O $>>>>>>>>@ @>>>>>:. =>>>>>>>>X &>>>>>>>>>>>>>",
">>>>>>>>>>>>>>O @>>>>>>>$ O>>>>>>:. &>>>>>>>O $>>>>>>=  ;>>>>>>:  =>>>>>>$ O>>>>>>>& .>>>>>>>>>>>>>>",
">>>>>>>>>>>>>>=  ;>>>>>>. &>>>>>>>$ X>>>>>>=  :>>>>>>>O @>>>>>>$ O>>>>>>>:. =>>>>>>O $>>>>>>>>>>>>>>",
">>>>>>>>>>>>>>>O @>>>>>& X>>>>>>>>:. &>>>>>@ @>>>>>>>>=  ;>>>>>. &>>>>>>>>$ O>>>>>=  :>>>>>>>>>>>>>>",
">>>>>>>>>>>>>>>=  ;>>>>X %>>>>>>>>>$ X>>>>;  ;>>>>>>>>>O @>>>>& X>>>>>>>>>:. =>>>>@ @>>>>>>>>>>>>>>>",
">>>>>>>>>>>>>>>>O @>>>= .:>>>>>>>>>:. &>>># O>>>>>>>>>>=  ;>>>X %>>>>>>>>>>$ O>>>;  ;>>>>>>>>>>>>>>>",
">>>>>>>>>>>>>>>>=  ;>>O #>>>>>>>>>>>$ X>>:. =>>>>>>>>>>>O @>>= .:>>>>>>>>>>:. =>># O>>>>>>>>>>>>>>>>",
">>>>>>>>>>>>>>>>>O @>;  ;>>>>>>>>>>>:. &>% X>>>>>>>>>>>>=  ;>O #>>>>>>>>>>>>$ O>:. =>>>>>>>>>>>>>>>>",
">>>>>>>>>>>>>>>>>-  ;@ @>>>>>>>>>>>>>$ X>X &>>>>>>>>>>>>>O @;  ;>>>>>>>>>>>>:. =$ o>>>>>>>>>>>>>>>>>",
">>>>>>>>>>>>>>>>>>@ +  =>>>>>>>>>>>>>:. O .>>>>>>>>>>>>>>=  O @>>>>>>>>>>>>>>$ OX &>>>>>>>>>>>>>>>>>",
">>>>>>>>>>>>>>>>>>;   O>>>>>>>>>>>>>>>$   $>>>>>>>>>>>>>>>O   ->>>>>>>>>>>>>>:.  X>>>>>>>>>>>>>>>>>>",
">>>>>>>>>>>>>>>>>>>@  &>>>>>>>>>>>>>>>:. .:>>>>>>>>>>>>>>>=  O>>>>>>>>>>>>>>>>$  $>>>>>>>>>>>>>>>>>>",
">>>>>>>>>>>>>>>>>>>; X>>>>>>>>>>>>>>>>>$ @>>>>>>>>>>>>>>>>>O *>>>>>>>>>>>>>>>>:..:>>>>>>>>>>>>>>>>>>",
">>>>>>>>>>>>>>>>>>>>@&>>>>>>>>>>>>>>>>>:.;>>>>>>>>>>>>>>>>>=X>>>>>>>>>>>>>>>>>>$@>>>>>>>>>>>>>>>>>>>",
">>>>>>>>>>>>>>>>>>>>;:>>>>>>>>>>>>>>>>>>->>>>>>>>>>>>>>>>>>>->>>>>>>>>>>>>>>>>>:;>>>>>>>>>>>>>>>>>>>",
">>>>>>>>>>>>>>>>>>>>>>>>>>>>>>>>>>>>>>>>>>>>>>>>>>>>>>>>>>>>>>>>>>>>>>>>>>>>>>>>>>>>>>>>>>>>>>>>>>>>",
">>>>>>>>>>>>>>>>>>>>>>>>>>>>>>>>>>>>>>>>>>>>>>>>>>>>>>>>>>>>>>>>>>>>>>>>>>>>>>>>>>>>>>>>>>>>>>>>>>>>",
">>>>>>>>>>>>%.=>>>>>>>>>>>&X%>>>@.:>>>>>>>>>>>+O=>>-OO>>>>>>>>>>>:.@;>>*X$>>>>>>>>>>>=.%>>>>>>>>>>>>",
">>>>>>>>>>>>$ O>>>>>>>>>>>X &>>>X $>>>>>>>>>>;  ;>>;  =>>>>>>>>>>& X>>>& .:>>>>>>>>>>+ @>>>>>>>>>>>>",
">>>>>>>>>>>>:. =>>>>>>>>>* .:>>>& .:>>>>>>>>>@ +>>>>@ O>>>>>>>>>>X &>>>>X $>>>>>>>>>;  ;>>>>>>>>>>>>",
">>>>>>>>>>>>>$ O>>>>>>>>>O $>>>>>X $>>>>>>>>:. =>>>>;  =>>>>>>>>* .:>>>>& .:>>>>>>>>@ +>>>>>>>>>>>>>",
">>>>>>>>>>>>>:. =>>>>>>>-  ;>>>>>& .:>>>>>>>$ o>>>>>>@ O>>>>>>>>O $>>>>>>X $>>>>>>>:. =>>>>>>>>>>>>>",
">>>>>>>>>>>>>>$ O>>>>>>>@ @>>>>>>>X $>>>>>>>X &>>>>>>;  =>>>>>>-  ;>>>>>>& .:>>>>>>$ O>>>>>>>>>>>>>>",
">>>>>>>>>>>>>>:. =>>>>>;  ->>>>>>>& .:>>>>>& X>>>>>>>>@ O>>>>>>@ @>>>>>>>>X $>>>>>>. &>>>>>>>>>>>>>>",
">>>>>>>>>>>>>>>$ O>>>>>$ O>>>>>>>>>O $>>>>>o $>>>>>>>>;  =>>>>;  ;>>>>>>>>& .:>>>>& X>>>>>>>>>>>>>>>",
">>>>>>>>>>>>>>>:. =>>>:. *>>>>>>>>>= .:>>>= .:>>>>>>>>>@ O>>>># O>>>>>>>>>>X $>>>>X %>>>>>>>>>>>>>>>",
">>>>>>>>>>>>>>>>$ O>>>& X>>>>>>>>>>>O $>>>O #>>>>>>>>>>;  =>>:. =>>>>>>>>>>& .:>>= .:>>>>>>>>>>>>>>>",
">>>>>>>>>>>>>>>>:. &>>X &>>>>>>>>>>>= .:>;  ;>>>>>>>>>>>@ O>>% X>>>>>>>>>>>>X $>>O #>>>>>>>>>>>>>>>>",
">>>>>>>>>>>>>>>>>$ X>& .>>>>>>>>>>>>>O $>@ @>>>>>>>>>>>>;  =>X &>>>>>>>>>>>>& .:;  ;>>>>>>>>>>>>>>>>",
">>>>>>>>>>>>>>>>>:. &O $>>>>>>>>>>>>>= .;  =>>>>>>>>>>>>>@ O& .>>>>>>>>>>>>>>X $@ @>>>>>>>>>>>>>>>>>",
">>>>>>>>>>>>>>>>>>$ .  :>>>>>>>>>>>>>>O X O>>>>>>>>>>>>>>;  X $>>>>>>>>>>>>>>& .  =>>>>>>>>>>>>>>>>>",
">>>>>>>>>>>>>>>>>>:.  @>>>>>>>>>>>>>>>=   &>>>>>>>>>>>>>>>@   :>>>>>>>>>>>>>>>X  O>>>>>>>>>>>>>>>>>>",
">>>>>>>>>>>>>>>>>>>$  ;>>>>>>>>>>>>>>>>O X>>>>>>>>>>>>>>>>;  @>>>>>>>>>>>>>>>>&  &>>>>>>>>>>>>>>>>>>",
">>>>>>>>>>>>>>>>>>>:.O>>>>>>>>>>>>>>>>>= %>>>>>>>>>>>>>>>>>@ ;>>>>>>>>>>>>>>>>>XX>>>>>>>>>>>>>>>>>>>",
">>>>>>>>>>>>>>>>>>>>$=>>>>>>>>>>>>>>>>>>+:>>>>>>>>>>>>>>>>>;O>>>>>>>>>>>>>>>>>>&&>>>>>>>>>>>>>>>>>>>",
">>>>>>>>>>>>>>>>>>>>>>>>>>>>>>>>>>>>>>>>>>>>>>>>>>>>>>>>>>>>>>>>>>>>>>>>>>>>>>>>>>>>>>>>>>>>>>>>>>>>",
">>>>>>>>>>>>>>>>>>>>>>>>>>>>>>>>>>>>>>>>>>>>>>>>>>>>>>>>>>>>>>>>>>>>>>>>>>>>>>>>>>>>>>>>>>>>>>>>>>>>",
">>>>>>>>>>>>*X=>>>>>>>>>>>&O=>>>$o>>>>>>>>>>>>@@;>>;@@>>>>>>>>>>>>O$:>>=O&>>>>>>>>>>>;o*>>>>>>>>>>>>",
">>>>>>>>>>>>@ O>>>>>>>>>>>O $>>>X &>>>>>>>>>>:  =>>=  ;>>>>>>>>>>& .>>>$ X>>>>>>>>>>>@ @>>>>>>>>>>>>",
">>>>>>>>>>>>;  =>>>>>>>>>=  :>>>& X>>>>>>>>>>$ O>>>>O @>>>>>>>>>>O $>>>:. &>>>>>>>>>:  =>>>>>>>>>>>>",
">>>>>>>>>>>>>@ O>>>>>>>>>@ @>>>>>X &>>>>>>>>>. &>>>>=  ;>>>>>>>>=  :>>>>$ X>>>>>>>>>$ O>>>>>>>>>>>>>",
">>>>>>>>>>>>>;  =>>>>>>>;  ;>>>>>& X>>>>>>>>& X>>>>>>O @>>>>>>>>@ @>>>>>:. &>>>>>>>>. &>>>>>>>>>>>>>",
">>>>>>>>>>>>>>@ O>>>>>>># O>>>>>>>X &>>>>>>>X %>>>>>>=  ;>>>>>>;  ;>>>>>>$ X>>>>>>>& X>>>>>>>>>>>>>>",
">>>>>>>>>>>>>>;  =>>>>>:. =>>>>>>>& X>>>>>>= .:>>>>>>>O @>>>>>># O>>>>>>>:. &>>>>>>X &>>>>>>>>>>>>>>",
">>>>>>>>>>>>>>>@ O>>>>>% X>>>>>>>>>X &>>>>>O #>>>>>>>>-  ;>>>>:. =>>>>>>>>$ X>>>>>* .:>>>>>>>>>>>>>>",
">>>>>>>>>>>>>>>;  =>>>>X &>>>>>>>>>& X>>>>;  ;>>>>>>>>>@ @>>>>$ o>>>>>>>>>:. &>>>>O $>>>>>>>>>>>>>>>",
">>>>>>>>>>>>>>>>@ O>>>& .>>>>>>>>>>>X &>>>@ @>>>>>>>>>>;  ;>>>X &>>>>>>>>>>$ X>>>-  ;>>>>>>>>>>>>>>>",
">>>>>>>>>>>>>>>>;  =>>O $>>>>>>>>>>>& X:>;  ->>>>>>>>>>>@ @>>& X>>>>>>>>>>>:. &>>@ @>>>>>>>>>>>>>>>>",
">>>>>>>>>>>>>>>>>@ O>= .:>>>>>>>>>>>>X $>$ O>>>>>>>>>>>>;  ;>o $>>>>>>>>>>>>$ X>;  ->>>>>>>>>>>>>>>>",
">>>>>>>>>>>>>>>>>;  =+ @>>>>>>>>>>>>>& .;. *>>>>>>>>>>>>>@ @= .:>>>>>>>>>>>>:. &$ O>>>>>>>>>>>>>>>>>",
">>>>>>>>>>>>>>>>>>@ o  ;>>>>>>>>>>>>>>X o X>>>>>>>>>>>>>>;  o @>>>>>>>>>>>>>>$ X. *>>>>>>>>>>>>>>>>>",
">>>>>>>>>>>>>>>>>>;   +>>>>>>>>>>>>>>>&   &>>>>>>>>>>>>>>>@   ;>>>>>>>>>>>>>>:.  X>>>>>>>>>>>>>>>>>>",
">>>>>>>>>>>>>>>>>>>@  =>>>>>>>>>>>>>>>>X .:>>>>>>>>>>>>>>>;  +>>>>>>>>>>>>>>>>$  &>>>>>>>>>>>>>>>>>>",
">>>>>>>>>>>>>>>>>>>; o>>>>>>>>>>>>>>>>>& $>>>>>>>>>>>>>>>>>@ =>>>>>>>>>>>>>>>>:..:>>>>>>>>>>>>>>>>>>",
">>>>>>>>>>>>>>>>>>>>@&>>>>>>>>>>>>>>>>>>X;>>>>>>>>>>>>>>>>>;o>>>>>>>>>>>>>>>>>>$$>>>>>>>>>>>>>>>>>>>",
">>>>>>>>>>>>>>>>>>>>:>>>>>>>>>>>>>>>>>>>:>>>>>>>>>>>>>>>>>>>:>>>>>>>>>>>>>>>>>>::>>>>>>>>>>>>>>>>>>>",
">>>>>>>>>>>>>>>>>>>>>>>>>>>>>>>>>>>>>>>>>>>>>>>>>>>>>>>>>>>>>>>>>>>>>>>>>>>>>>>>>>>>>>>>>>>>>>>>>>>>",
">>>>>>>>>>>>;@;>>>>>>>>>>>=$;>>>=@>>>>>>>>>>>>%&:>>>&%>>>>>>>>>>>>#=>>>:$=>>>>>>>>>>>;@;>>>>>>>>>>>>",
">>>>>>>>>>>>+ @>>>>>>>>>>>+ @>>>. &>>>>>>>>>>:. *>>= .:>>>>>>>>>>= .:>>@ O>>>>>>>>>>>$ +>>>>>>>>>>>>",
">>>>>>>>>>>>=  ;>>>>>>>>>;  ;>>>$ X>>>>>>>>>>& X>>>>O $>>>>>>>>>>+ @>>>;  =>>>>>>>>>:. *>>>>>>>>>>>>",
">>>>>>>>>>>>>O @>>>>>>>>>@ +>>>>:. &>>>>>>>>>X &>>>>= .:>>>>>>>>;  ;>>>>@ O>>>>>>>>>& X>>>>>>>>>>>>>",
">>>>>>>>>>>>>=  ;>>>>>>>:. =>>>>>$ X>>>>>>>>* .:>>>>>O $>>>>>>>>@ +>>>>>;  =>>>>>>>>X &>>>>>>>>>>>>>",
">>>>>>>>>>>>>>O @>>>>>>>$ o>>>>>>:. &>>>>>>>O $>>>>>>= .:>>>>>>:. =>>>>>>@ O>>>>>>>* .:>>>>>>>>>>>>>",
">>>>>>>>>>>>>>=  ;>>>>>>X &>>>>>>>$ X>>>>>>-  ;>>>>>>>O $>>>>>>$ o>>>>>>>;  =>>>>>>O $>>>>>>>>>>>>>>",
">>>>>>>>>>>>>>>O @>>>>>& X>>>>>>>>:. &>>>>>@ @>>>>>>>>= .:>>>>>X &>>>>>>>># O>>>>>=  :>>>>>>>>>>>>>>",
">>>>>>>>>>>>>>>=  ;>>>>o $>>>>>>>>>$ X>>>>;  ->>>>>>>>>O $>>>>& X>>>>>>>>>:. =>>>>@ @>>>>>>>>>>>>>>>",
">>>>>>>>>>>>>>>>O @>>>= .:>>>>>>>>>:. &>>># O>>>>>>>>>>= .:>>>X %>>>>>>>>>>$ O>>>;  ;>>>>>>>>>>>>>>>",
">>>>>>>>>>>>>>>>=  ;>>O @>>>>>>>>>>>$ X>>:. =>>>>>>>>>>>O $>>= .:>>>>>>>>>>:. =>># O>>>>>>>>>>>>>>>>",
">>>>>>>>>>>>>>>>>O @>;  ;>>>>>>>>>>>:. &>% X>>>>>>>>>>>>=  ;>O #>>>>>>>>>>>>$ O>:. =>>>>>>>>>>>>>>>>",
">>>>>>>>>>>>>>>>>=  ;@ @>>>>>>>>>>>>>$ X>X &>>>>>>>>>>>>>O @;  ;>>>>>>>>>>>>:. =% X>>>>>>>>>>>>>>>>>",
">>>>>>>>>>>>>>>>>>O +  =>>>>>>>>>>>>>:. O .>>>>>>>>>>>>>>=  O @>>>>>>>>>>>>>>$ OX &>>>>>>>>>>>>>>>>>",
">>>>>>>>>>>>>>>>>>=   O>>>>>>>>>>>>>>>$   $>>>>>>>>>>>>>>>O   =>>>>>>>>>>>>>>:.  .>>>>>>>>>>>>>>>>>>",
">>>>>>>>>>>>>>>>>>>O  &>>>>>>>>>>>>>>>:.  :>>>>>>>>>>>>>>>=  O>>>>>>>>>>>>>>>>$  $>>>>>>>>>>>>>>>>>>",
">>>>>>>>>>>>>>>>>>>= X>>>>>>>>>>>>>>>>>$ @>>>>>>>>>>>>>>>>>O &>>>>>>>>>>>>>>>>:. :>>>>>>>>>>>>>>>>>>",
">>>>>>>>>>>>>>>>>>>>O%>>>>>>>>>>>>>>>>>:.;>>>>>>>>>>>>>>>>>=X>>>>>>>>>>>>>>>>>>$@>>>>>>>>>>>>>>>>>>>",
">>>>>>>>>>>>>>>>>>>>-:>>>>>>>>>>>>>>>>>>=>>>>>>>>>>>>>>>>>>>->>>>>>>>>>>>>>>>>>:;>>>>>>>>>>>>>>>>>>>",
">>>>>>>>>>>>>>>>>>>>>>>>>>>>>>>>>>>>>>>>>>>>>>>>>>>>>>>>>>>>>>>>>>>>>>>>>>>>>>>>>>>>>>>>>>>>>>>>>>>>",
">>>>>>>>>>>>>>>>>>>>>>>>>>>>>>>>>>>>>>>>>>>>>>>>>>>>>>>>>>>>>>>>>>>>>>>>>>>>>>>>>>>>>>>>>>>>>>>>>>>>",
">>>>>>>>>>>>>>>>>>>>>>>>>>>>>>>>>>>>>>>>>>>>>>>>>>>>>>>>>>>>>>>>>>>>>>>>>>>>>>>>>>>>>>>>>>>>>>>>>>>>",
">>>>>>>>>>>>>>>>>>>>>>>>>>>>>>>>>>>>>>>>>>>>>>>>>>>>>>>>>>>>>>>>>>>>>>>>>>>>>>>>>>>>>>>>>>>>>>>>>>>>",
">>>>>>>>>>>>>>>>>>>>>>>>>>>>>>>>>>>>>>>>>>>>>>>>>>>>>>>>>>>>>>>>>>>>>>>>>>>>>>>>>>>>>>>>>>>>>>>>>>>>",
">>>>>>>>>>>>>>>>>>>>>>>>>>>>>>>>>>>>>>>>>>>>>>>>>>>>>>>>>>>>>>>>>>>>>>>>>>>>>>>>>>>>>>>>>>>>>>>>>>>>",
">>>>>>>>>>>>>>>>>>>>>>>>>>>>>>>>>>>>>>>>>>>>>>>>>>>>>>>>>>>>>>>>>>>>>>>>>>>>>>>>>>>>>>>>>>>>>>>>>>>>",
">>>>>>>>>>>>>>>>>>>>>>>>>>>>>>>>>>>>>>>>>>>>>>>>>>>>>>>>>>>>>>>>>>>>>>>>>>>>>>>>>>>>>>>>>>>>>>>>>>>>",
">>>>>>>>>>>>>>>>>>>>>>>>>>>>>>>>>>>>>>>>>>>>>>>>>>>>>>>>>>>>>>>>>>>>>>>>>>>>>>>>>>>>>>>>>>>>>>>>>>>>"
};
