/* XPM */
static char *_003[] = {
/* columns rows colors chars-per-pixel */
"100 100 71 1 ",
"  c black",
". c #080603",
"X c #110C07",
"o c #23180E",
"O c #2B1E12",
"+ c #342515",
"@ c #3D2B19",
"# c #46311C",
"$ c #4F3720",
"% c #573D24",
"& c #006837",
"* c #076D37",
"= c #086E37",
"- c #1A6737",
"; c #0E7138",
": c #117338",
"> c #137538",
", c #1A7038",
"< c #1A7938",
"1 c #236737",
"2 c #2A6637",
"3 c #2B6638",
"4 c #316638",
"5 c #346638",
"6 c #3D6538",
"7 c #237638",
"8 c #237F39",
"9 c #604327",
"0 c #69492B",
"q c #72502E",
"w c #7A5632",
"e c #466538",
"r c #576438",
"t c #606438",
"y c #696438",
"u c #835C35",
"i c #836239",
"p c #8C6239",
"a c #8C6839",
"s c #8C6E3A",
"d c #8C743A",
"f c #8C7B3A",
"g c #278239",
"h c #2B8539",
"j c #2D873A",
"k c #348B3A",
"l c #398E3A",
"z c #3D913A",
"x c #46973B",
"c c #4F9D3B",
"v c #54A13B",
"b c #57A33C",
"n c #5BA53C",
"m c #5CA53C",
"M c #60A93C",
"N c #69AE3D",
"B c #72B43D",
"V c #7ABA3E",
"C c #8C813B",
"Z c #8C873B",
"A c #8C8E3C",
"S c #8C943C",
"D c #8C9A3C",
"F c #8CA03D",
"G c #8CA73D",
"H c #8CAD3D",
"J c #8CB33E",
"K c #8CB93E",
"L c #83C03E",
"P c #8CC03F",
"I c #8CC63F",
/* pixels */
"IIIIIIIIIIIIIIIIIIIIIIIIIIIIIIIIIIIIIIIIIIIIIIIIIIIIIIIIIIIIIIIIIIIIIIIIIIIIIIIIIIIIIIIIIIIIIIIIIIII",
"IIIIIIIIIIIIIIIIIIIIIIIIIIIIIIIIIIIIIIIIIIIIIIIIIIIIIIIIIIIIIIIIIIIIIIIIIIIIIIIIIIIIIIIIIIIIIIIIIIII",
"IIIIIIIIIIIIIIIIIIIIIIIIIIIIIIIIIIIIIIIIIIIIIIIIIIIIIIIIIIIIIIIIIIIIIIIIIIIIIIIIIIIIIIIIIIIIIIIIIIII",
"IIIIIIIIIIIIIIIIIIIINBIIIIIIIINBIIIIIIIIIIIIIIIIIIIIIIIIIIIIIIIIIIIIIIIIIIIIIIIIIIIIIIIIIIIIIIIIIIII",
"IIIIIIIIIIIIIIIIIIL<&&kLIIIIL<&&kIIIIIIIIIIIIIIIIIIIIIIIIIIIIIIIIIIIIIIIIIIIIIIIIIIIIIIIIIIIIIIIIIII",
"IIIIIIIIIIIIIIIIIL<&&&&kIIIL<&&&&kIIIIIIIIIIIIIIIIIIIIIIIIIIIIIIIIIIIIIIIIIIIIIIIIIIIIIIIIIIIIIIIIII",
"IIIIIIIIIIIIIIIIIz&&&&&&cIIh&&&&&&MIIIIIIIIIIIIIIIIIIIIIIIIIIIIIIIIIIIIIIIIIIIIIIIIIIIIIIIIIIIIIIIII",
"IIIIIIILNVIIIIIIN&&&&&&&=LN&&&&&&&=LIIIIIIVNIIIIIIIIIIIIIIIIIIIIIIIIIIIIIIIIIIIIIIIIIIIIIIIIIIIIIIII",
"IIIIIB8&&&&<zMIIh&&&&&&&&k:&&&&&&&&xILbk:&&&&8LIIIIIIIIIIIIIIIIIIIIIIIIIIIIIIIIIIIIIIIIIIIIIIIIIIIII",
"IIIIV=&&&&&&&&:x&&&&&&&&&&&&&&&&&&&:k=&&&&&&&&<IIIIIIIIIIIIIIIIIIIIIIIIIIIIIIIIIIIIIIIIIIIIIIIIIIIII",
"IIIIk&&&&&&&&&&&&&&&&&&&&&&&&&&&&&&&&&&&&&&&&&&bIIIIIIIIIIIIIIIIIIIIIIIIIIIIIIIIIIIIIIIIIIIIIIIIIIII",
"IIIV&&&&&&&&&&&&&&&&&&&&&&&&&&&&&&&&&&&&&&&&&&&:IIIIIIIIIIIIIIIIIIIIIIIIIIIIIIIIIIIIIIIIIIIIIIIIIIII",
"IIIc&&&&&&&&&&&&&&&&&&&&&&&&&&&&&&&&&&&&&&&&&&&&BIIIIIIIIIIIIIIIIIIIIIIIIIIIIIIIIIIIIIIIIIIIIIIIIIII",
"III8&&&&&&&&&&&&&&&&&&&&&&&&&&&&&&&&&&&&&&&&&&&&xIIIIIIIIIIIIIIIIIIIIIIIIIIIIIIIIIIIIIIIIIIIIIIIIIII",
"III&&&&&&&&&&&&&&&&&&&&&&&&&&&&&&&&&&&&&&&&&&&&&8IIIIIIIIIIIIIIIIIIIIIIIIIIIIIIIIIIIIIIIIIIIIIIIIIII",
"IIB&&&&&&&&&&&&&&&&&&&&&&&&&&&&&&&&&&&&&&&&&&&&&=IIIIIIIIIIIIIIIIIIIIIIIIIIIIIIIIIIIIIIIIIIIIIIIIIII",
"IIN&&&&&&&&&&&&&&&&&&&&&&&&&&&&&&&&&&&&&&&&&&&&&&IIIIIIIIIIIIIIIIIIIIIIIIIIIIIIIIIIIIIIIIIIIIIIIIIII",
"IIc&&&&&&&&&&&&&&&&&&&&&&&&&&&&&&&&&&&&&&&&&&&&&&NIIIIIIIIIIIIIIIIIIIIIIIIIIIIIIIIIIIIIIIIIIIIIIIIII",
"IIx&&&&&&&&&&&&&&&&&&&&&&&&&&&&&&&&&&&&&&&&&&&&&&NIIIIIIIIIIIIIIIIbxNIIIIIIIbxNIIIIIIIIIIIIIIIIIIIII",
"IIc&&&&&&&&&&&&&&&&&&&&&&&&&&&&&&&&&&&&&&&&&&&&&&NIIIIIIIIIIIIIIIh&&&zIIIIL<&&&bIIIIIIIIIIIIIIIIIIII",
"IIL=&&&&&&&&&&&&&&&&&&&&&&&&&&&&&&&&&&&&&&&&&&&&8IIIIIIIIIIIIIIIk&&&&&bIIIh&&&&&MIIIIIIIIIIIIIIIIIII",
"IIIv&&&&&&&&&&&&&&&&&&&&&&&&&&&&&&&&&&&&&&&&&&&jLIIIIIIIIIIIIIIM&&&&&&=VIb&&&&&&=LIIIIIIIIIIIIIIIIII",
"IIIz&&&&&&&&&&&&&&&&&&&&&&&&&&&&&&&&&&&&&&&&&&&bIIIIINxxMNIIIII:&&&&&&&hL=&&&&&&&kIIIILNcxcBIIIIIIII",
"III8&&&&&&&&&&&&&&&&&&&&&&&&&&&&&&&&&&&&&&&&&&&kIIIL<&&&&&&hbLb&&&&&&&&&k&&&&&&&&&LVc<&&&&&&kIIIIIII",
"III&&&&&&&&&&&&&&&&&&&&&&&&&&&&&&&&&&&&&&&&&&&&8III8&&&&&&&&&=:&&&&&&&&&>&&&&&&&&&8&&&&&&&&&&xIIIIII",
"IIL&&&&&&&&&&&&&&&&&&&&&&&&&&&&&&&&&&&&&&&&&&&&*IIb&&&&&&&&&&&&&&&&&&&&&>&&&&&&&&&&&&&&&&&&&&=LIIIII",
"IIN&&&&&&&&&&&&&&&&&&&&&&&&&&&&&&&&&&&&&&&&&&&&&II8&&&&&&&&&&&&&&&&&&&&&>&&&&&&&&&&&&&&&&&&&&&cIIIII",
"IIN&&&&&&&&&&&&&&&&&&&&&&&&&&&&&&&&&&&&&&&&&&&&&IL&&&&&&&&&&&&&&&&&&&&&&>&&&&&&&&&&&&&&&&&&&&&<IIIII",
"IIV&&&&&&&&&&&&&&&&&&&&&&&&&&&&&&&&&&&&&&&&&&&&&IM&&&&&&&&&&&&&&&&&&&&&&>&&&&&&&&&&&&&&&&&&&&&&LIIII",
"IIIb&&&&&&&&&&&&&&&&&&&&&&&&&&&&&&&&&&&&&&&&&&&hIx&&&&&&&&&&&&&&&&&&&&&&;&&&&&&&&&&&&&&&&&&&&&&NIIII",
"IIIIm=&&&&&&&&&&&&&&&&&&&&&&&&&&&&&&&&&&&&&&&:xLI8&&&&&&&&&&&&&&&&&&&&&&&&&&&&&&&&&&&&&&&&&&&&&cIIII",
"IIIIIL=&&&&&&&&&&&&&&&&&&&&&&&&&&&&&&&&&&&&&<IIII<&&&&&&&&&&&&&&&&&&&&&&&&&&&&&&&&&&&&&&&&&&&&&xIIII",
"IIIIIx&&&&&&&&&&&&&&&&&&&&&&&&&&&&&&&&&&&&&&&NIII&&&&&&&&&&&&&&&&&&&&&&&&&&&&&&&&&&&&&&&&&&&&&&8IIII",
"IIIII:&&&&&&&&&&&&&&&&&&&&&&&&&&&&&&&&&&&&&&&hIII&&&&&&&&&&&&&&&&&&&&&&&&&&&&&&&&&&&&&&&&&&&&&&8IIII",
"IIIIM&&&&&&&&&&&&&&&&&&&&&&&&&&&&&&&&&&&&&&&&&LII=&&&&&&&&&&&&&&&&&&&&&&&&&&&&&&&&&&&&&&&&&&&&&kIIII",
"IIIIx&&&&&&&&&&&&&&&&&&&&&&&&&&&&&&&&&&&&&&&&&MIIM&&&&&&&&&&&&&&&&&&&&&&&&&&&&&&&&&&&&&&&&&&&&<LIIII",
"IIII8&&&&&&&&&&&&&&&&&&&&&&&&&&&&&&&&&&&&&&&&&xIII*&&&&&&&&&&&&&&&&&&&&&&&&&&&&&&&&&&&&&&&&&&:LIIIII",
"IIII8&&&&&&&k<&&&&&&&&&&&2&&&&&&&&&&&h8&&&&&&&xIIB&&&&&&&&&&&&&&&&&&&&&&&&&&&&&&&&&&&&&&&&&&&=IIIIII",
"IIIIM&&&=hbLIV=&&&&&&&&&5p3&&&&&&&&&<LIVc8&&&=NIIb&&&&&&&&&&&&&&&&&&&&&&&&&&&&&&&&&&&&&&&&&&&&VIIIII",
"IIIIILNVIIIIIIB:&&&&&&&eppi5&&&&&&&8LIIIIIIBNIIIIx&&&&&&&&&&&&&&&&&&&&&&&&&&&&&&&&&&&&&&&&&&&&NIIIII",
"IIIIIIIIIIIIIIILx:&&&3ypppppt-&&&,bIIIIIIIIIIIIIIh&&&&&&&&&&&&&&&&&&&&&&&&&&&&&&&&&&&&&&&&&&&&cIIIII",
"IIIIIIIIIIIIIIIIIIIIfppppppppppppSIIIIIIIIIIIIIII8&&&&&&&&&&&&&&&&&&&&&&&&&&&&&&&&&&&&&&&&&&&&xIIIII",
"IIIIIIIIIIIIIIIIIIIIfppppppppppppSIIIIIIIIIIIIIII8&&&&&&&&&&&&&&&&&&&&&&&&&&&&&&&&&&&&&&&&&&&&lIIIII",
"IIIIIIIIIIIIIIIIIIIIfppppppppppppSIIIIIIIIIIIIIIIx&&&&&&&&&&&&&&&&&&&&&&&&&&&&&&&&&&&&&&&&&&&&cIIIII",
"IIIIIIIIIIIIIIIIIIIIfppppppppppppSIIIIIIIIIIIIIIIIg&&&&&&&&&&&&&&&&&&&&&&&&&&&&&&&&&&&&&&&&&&:IIIIII",
"IIIIIIIIIIIIIIIIIIIIfppppppppppppSIIIIIIIIIIIIIIIIIm>&&&&&&&&&&&&&&&&&&&&&&&&&&&&&&&&&&&&&&gnIIIIIII",
"IIIIIIIIIIIIIIIIIIIIfppppppppppppSIIIIIIIIIIIIIIIIIIk&&&&&&&&&&&&&&&&&&&&&&&&&&&&&&&&&&&&&&bIIIIIIII",
"IIIIIIIIIIIIIIIIIIIIfppppppppppppSIIIIIIIIIIIIIIIIIV&&&&&&&&&&&&&&&&&&&&&&&&&&&&&&&&&&&&&&&:IIIIIIII",
"IIIIIIIIIIIIIIIIIIIIfppppppppppppSIIIIIIIIIIIIIIIIIz&&&&&&&&&&&&&&&&&&&&&&&&&&&&&&&&&&&&&&&&MIIIIIII",
"IIIIIIIIIIIIIIIIIIIIfppppppppppppSIIIIIIIIIIIIIIIII:&&&&&&&&&&&&&&&&&&&&&&&&&&&&&&&&&&&&&&&&kIIIIIII",
"IIIIIIIIIIIIIIIIIIIIfppppppppppppSIIIIIIIIIIIIIIIIV&&&&&&&&&&&&&&&&&&&&&&&&&&&&&&&&&&&&&&&&&:IIIIIII",
"IIIIIIIIIIIIIIIIIIIIappppppppppppSIIIIIIIIIIIIIIIIN&&&&&&&&&&&&&&&&&&&&&&&&&&&&&&&&&&&&&&&&&&IIIIIII",
"IIIIIIIIIIIIIIIIIIIIpppppppppppppSIIIIIIIIIIIIIIIIB&&&&&&=zM=&&&&&&&&&&4-&&&&&&&&&&<Mk&&&&&&=IIIIIII",
"IIIIIIIIIIIIIIIIIIIIppp%wppppquppCIIIIIIIIIIIIIIIIIz::8zNIIIb&&&&&&&&&5pi-&&&&&&&&=BIILMk8=<bIIIIIII",
"IIIIIIIIIIIIIIIIIIIIpppo0p00po9ppfIIIIIIIIIIIIIIIIIIIIIIIIIIIN=&&&&&&6pppi1&&&&&&8VIIIIIIIIIIIIIIIII",
"IIIIIIIIIIIIIIIIIIIIpppo0p##p##ppfIIIIIIIIIIIIIIIIIIIIIIIIIIIILbh875yppppppr3115MIIIIIIIIIIIIIIIIIII",
"IIIIIIIIIIIIIIIIIIIKpppo0p##p##ppfIIIIIIIIIIIIIIIIIIIIIIIIIIIIIIIIHpppppppppppppIIIIIIIIIIIIIIIIIIII",
"IIIIIIIIIIIIIIIIIIIHpppo0p##p##ppsIIIIIIIIIIIIIIIIIIIIIIIIIIIIIIIIHpppppppppppppIIIIIIIIIIIIIIIIIIII",
"IIIIIIIIIIIIIIIIIIIHppp up##p##pppIIIIIIIIIIIIIIIIIIIIIIIIIIIIIIIIHpppppppppppppIIIIIIIIIIIIIIIIIIII",
"IIIIIIIIIIIIIIIIIIIGppp pp##p%OpppIIIIIIIIIIIIIIIIIIIIIIIIIIIIIIIIHpppppppppppppIIIIIIIIIIIIIIIIIIII",
"IIIIIIIIIIIIIIIIIIISppp pp##p0opppKIIIIIIIIIIIIIIIIIIIIIIIIIIIIIIIHpppppppppppppIIIIIIIIIIIIIIIIIIII",
"IIIIIIIIIIIIIIIIIIISppw.pp##p0opppHIIIIIIIIIIIIIIIIIIIIIIIIIIIIIIIHpppppppppppppIIIIIIIIIIIIIIIIIIII",
"IIIIIIIIIIIIIIIIIIIfpp0opp##pqXpppFIIIIIIIIIIIIIIIIIIIIIIIIIIIIIIIHpppppppppppppIIIIIIIIIIIIIIIIIIII",
"IIIIIIIIIIIIIIIIIIIdpp0opp##pp pppSIIIIIIIIIIIIIIIIIIIIIIIIIIIIIIIHpppppppppppppIIIIIIIIIIIIIIIIIIII",
"IIIIIIIIIIIIIIIIIIIppp#@pp##pp uppCIIIIIIIIIIIIIIIIIIIIIIIIIIIIIIIGpppppppppppppIIIIIIIIIIIIIIIIIIII",
"IIIIIIIIIIIIIIIIIIJppp@#pp##ppo0ppdIIIIIIIIIIIIIIIIIIIIIIIIIIIIIIISpppppppppppppIIIIIIIIIIIIIIIIIIII",
"IIIIIIIIIIIIIIIIIIFpppo9pp##ppO%pppPIIIIIIIIIIIIIIIIIIIIIIIIIIIIIISpppppppppppppIIIIIIIIIIIIIIIIIIII",
"IIIIIIIIIIIIIIIIIIZppp.wpp##pp#@pppHIIIIIIIIIIIIIIIIIIIIIIIIIIIIIISpppppppppppppIIIIIIIIIIIIIIIIIIII",
"IIIIIIIIIIIIIIIIIIspp0Xppp00pp0XpppAIIIIIIIIIIIIIIIIIIIIIIIIIIIIIISppq@ppppw%pppKIIIIIIIIIIIIIIIIIII",
"IIIIIIIIIIIIIIIIIJpppu0pppppppp+pppsIIIIIIIIIIIIIIIIIIIIIIIIIIIIIISpp0oppop0opppHIIIIIIIIIIIIIIIIIII",
"IIIIIIIIIIIIIIIIIZppppppppppppppppppHIIIIIIIIIIIIIIIIIIIIIIIIIIIIIApp0opp pw.pppHIIIIIIIIIIIIIIIIIII",
"IIIIIIIIIIIIIIIIKpppppppppppppppppppfIIIIIIIIIIIIIIIIIIIIIIIIIIIIIfpp0opp pp pppHIIIIIIIIIIIIIIIIIII",
"IIIIIIIIIIIIIIIPdppppppppppppppppppppAIIIIIIIIIIIIIIIIIIIIIIIIIIIIfpp$+pp pp pppGIIIIIIIIIIIIIIIIIII",
"IIIIIIIIIIIIIIPdppppppppppppppppppppppFIIIIIIIIIIIIIIIIIIIIIIIIIIIfpp##pp pp pppSIIIIIIIIIIIIIIIIIII",
"IIIIIIIIIIIIIICppppppppppppppppppppppppFIIIIIIIIIIIIIIIIIIIIIIIIIIapp##pp pp.wppSIIIIIIIIIIIIIIIIIII",
"IIIIIIIIIIIIIZppppppppppppppppppppppppppFIIIIIIIIIIIIIIIIIIIIIIIIIppp@#pp ppo0ppZIIIIIIIIIIIIIIIIIII",
"IIIIIIIIIIIIZppppppsdppppppppppppCappppppFIIIIIIIIIIIIIIIIIIIIIIIKpppo0pp ppo0ppfIIIIIIIIIIIIIIIIIII",
"IIIIIIIIIIIZpppppfGIIZppppSsppppFIPDspppppFIIIIIIIIIIIIIIIIIIIIIIHpppo0pp ppO%ppsIIIIIIIIIIIIIIIIIII",
"IIIIIIIIIIZpppaZKIIIIIZpppPFppaGIIIIIGfpppaJIIIIIIIIIIIIIIIIIIIIIDpppXqpp pp##pppIIIIIIIIIIIIIIIIIII",
"IIIIIIIIIDppsDPIIIIIIIIDpZIIsaJIIIIIIIIKAapaJIIIIIIIIIIIIIIIIIIIIAppp ppp pp#@pppJIIIIIIIIIIIIIIIIII",
"IIIIIIIIFpCHIIIIIIIIIIIIFKIIFJIIIIIIIIIIIPFsaJIIIIIIIIIIIIIIIIIIIfppq.ppp pp0opppFIIIIIIIIIIIIIIIIII",
"IIIIIIIJAKIIIIIIIIIIIIIIIIIIIIIIIIIIIIIIIIIIHZPIIIIIIIIIIIIIIIIIIapp9oppp ppq.pppAIIIIIIIIIIIIIIIIII",
"IIIIIIIIIIIIIIIIIIIIIIIIIIIIIIIIIIIIIIIIIIIIIIIIIIIIIIIIIIIIIIIIJppp@#ppp ppp wppdIIIIIIIIIIIIIIIIII",
"IIIIIIIIIIIIIIIIIIIIIIIIIIIIIIIIIIIIIIIIIIIIIIIIIIIIIIIIIIIIIIIIDpppXqppp0pppO$pppKIIIIIIIIIIIIIIIII",
"IIIIIIIIIIIIIIIIIIIIIIIIIIIIIIIIIIIIIIIIIIIIIIIIIIIIIIIIIIIIIIIIdpppwppppppppqqpppDIIIIIIIIIIIIIIIII",
"IIIIIIIIIIIIIIIIIIIIIIIIIIIIIIIIIIIIIIIIIIIIIIIIIIIIIIIIIIIIIIIHppppppppppppppppppsIIIIIIIIIIIIIIIII",
"IIIIIIIIIIIIIIIIIIIIIIIIIIIIIIIIIIIIIIIIIIIIIIIIIIIIIIIIIIIIIIIdpppppppppppppppppppDIIIIIIIIIIIIIIII",
"IIIIIIIIIIIIIIIIIIIIIIIIIIIIIIIIIIIIIIIIIIIIIIIIIIIIIIIIIIIIIIZpppppppppppppppppppppGIIIIIIIIIIIIIII",
"IIIIIIIIIIIIIIIIIIIIIIIIIIIIIIIIIIIIIIIIIIIIIIIIIIIIIIIIIIIIIZppppppppppppppppppppppaJIIIIIIIIIIIIII",
"IIIIIIIIIIIIIIIIIIIIIIIIIIIIIIIIIIIIIIIIIIIIIIIIIIIIIIIIIIIIZppppppppppppppppppppppppaJIIIIIIIIIIIII",
"IIIIIIIIIIIIIIIIIIIIIIIIIIIIIIIIIIIIIIIIIIIIIIIIIIIIIIIIIIISppppppppppppppppppppppppppaJIIIIIIIIIIII",
"IIIIIIIIIIIIIIIIIIIIIIIIIIIIIIIIIIIIIIIIIIIIIIIIIIIIIIIIIIFppppppdFdpppppapppppZSapppppaJIIIIIIIIIII",
"IIIIIIIIIIIIIIIIIIIIIIIIIIIIIIIIIIIIIIIIIIIIIIIIIIIIIIIIIFpppppZHIIPdpppsHppppSIIIFdppppaJIIIIIIIIII",
"IIIIIIIIIIIIIIIIIIIIIIIIIIIIIIIIIIIIIIIIIIIIIIIIIIIIIIIIFpppsSPIIIIIPfppFIfppFIIIIIIHZpppdPIIIIIIIII",
"IIIIIIIIIIIIIIIIIIIIIIIIIIIIIIIIIIIIIIIIIIIIIIIIIIIIIIIFppfFIIIIIIIIIIZsIIHpFIIIIIIIIIKSspdPIIIIIIII",
"IIIIIIIIIIIIIIIIIIIIIIIIIIIIIIIIIIIIIIIIIIIIIIIIIIIIIIJaZJIIIIIIIIIIIIIJIIIKIIIIIIIIIIIIIFfdPIIIIIII",
"IIIIIIIIIIIIIIIIIIIIIIIIIIIIIIIIIIIIIIIIIIIIIIIIIIIIIIFPIIIIIIIIIIIIIIIIIIIIIIIIIIIIIIIIIIIJHIIIIIII",
"IIIIIIIIIIIIIIIIIIIIIIIIIIIIIIIIIIIIIIIIIIIIIIIIIIIIIIIIIIIIIIIIIIIIIIIIIIIIIIIIIIIIIIIIIIIIIIIIIIII",
"IIIIIIIIIIIIIIIIIIIIIIIIIIIIIIIIIIIIIIIIIIIIIIIIIIIIIIIIIIIIIIIIIIIIIIIIIIIIIIIIIIIIIIIIIIIIIIIIIIII",
"IIIIIIIIIIIIIIIIIIIIIIIIIIIIIIIIIIIIIIIIIIIIIIIIIIIIIIIIIIIIIIIIIIIIIIIIIIIIIIIIIIIIIIIIIIIIIIIIIIII"
};
